<?xml version="1.0" encoding="utf-8" ?>
<svg xmlns="http://www.w3.org/2000/svg" xmlns:xlink="http://www.w3.org/1999/xlink" width="1024" height="1024">
	<!-- White background -->
	<!-- <rect width="1024" height="1024" fill="white"/> -->
	<circle cx="512" cy="512" r="512" fill="white"/>
	<path fill="#145138" d="M632.41 218.638C632.655 218.617 632.899 218.593 633.144 218.575C636.897 218.298 639.878 218.818 642.751 221.428C644.459 222.979 645.601 225.095 645.68 227.427C645.766 229.984 644.706 232.271 643.231 234.296C636.058 244.145 626.175 253.903 617.733 262.823Q604.775 276.623 592.062 290.648C566.835 318.105 541.9 347.443 516.011 374.046C513.806 376.311 510.599 380.198 507.241 380.148C504.134 380.102 501.014 378.228 498.622 376.404C493.925 372.822 489.906 367.909 485.772 363.691Q472.507 349.896 458.993 336.344L454.226 331.61C451.161 328.538 448.411 325.18 448.567 320.574C448.659 317.869 449.757 315.035 451.827 313.237C453.815 311.51 456.523 310.514 459.163 310.695C460.94 310.817 462.451 311.383 463.856 312.475C468.947 316.431 473.444 322.207 478.02 326.836C487.65 336.579 497.667 345.956 506.771 356.204C531.976 325.728 559.692 297.159 586.311 267.917C593.901 259.58 625.252 222.406 632.41 218.638Z"/>
	<path fill="#20232D" d="M504.481 194.734Q511.004 194.479 517.511 195.015C547.62 197.414 575.533 209.422 595.33 232.687C589.802 239.449 583.971 245.811 577.838 252.026C563.561 235.096 543.301 224.91 521.515 221.95Q520.413 221.804 519.308 221.685Q518.202 221.566 517.094 221.474Q515.986 221.382 514.876 221.317Q513.767 221.253 512.656 221.215Q511.544 221.178 510.433 221.167Q509.321 221.157 508.209 221.174Q507.098 221.191 505.987 221.236Q504.876 221.28 503.767 221.351Q502.657 221.423 501.55 221.522Q500.443 221.62 499.338 221.746Q498.233 221.872 497.132 222.025Q496.031 222.178 494.934 222.358Q493.837 222.537 492.744 222.744Q491.652 222.951 490.565 223.184Q489.478 223.417 488.397 223.677Q487.316 223.937 486.242 224.224Q485.168 224.51 484.101 224.823Q483.034 225.136 481.975 225.474Q480.916 225.813 479.866 226.178Q478.816 226.542 477.775 226.932Q476.734 227.323 475.703 227.738Q474.672 228.154 473.651 228.595Q472.63 229.035 471.621 229.501Q470.611 229.967 469.614 230.457Q468.616 230.947 467.63 231.462Q466.645 231.977 465.672 232.515Q464.7 233.054 463.741 233.616Q462.782 234.178 461.837 234.764Q460.892 235.35 459.961 235.958Q459.031 236.567 458.116 237.198Q457.201 237.83 456.301 238.483Q455.402 239.137 454.519 239.812Q453.581 240.53 452.661 241.272Q451.741 242.013 450.84 242.777Q449.938 243.542 449.056 244.328Q448.174 245.114 447.312 245.922Q446.449 246.73 445.607 247.559Q444.765 248.388 443.944 249.237Q443.123 250.087 442.323 250.957Q441.523 251.826 440.745 252.716Q439.967 253.605 439.211 254.513Q438.456 255.422 437.723 256.348Q436.99 257.275 436.28 258.22Q435.57 259.165 434.884 260.127Q434.198 261.089 433.536 262.068Q432.874 263.046 432.236 264.041Q431.599 265.036 430.986 266.046Q430.373 267.057 429.786 268.082Q429.199 269.107 428.637 270.147Q428.075 271.186 427.539 272.239Q427.003 273.293 426.494 274.359Q425.984 275.425 425.501 276.503Q425.018 277.582 424.562 278.672Q424.106 279.762 423.677 280.863Q423.249 281.964 422.847 283.075Q422.446 284.187 422.072 285.308Q421.698 286.429 421.352 287.558Q421.007 288.688 420.689 289.826Q420.371 290.965 420.082 292.11Q419.793 293.256 419.532 294.408Q419.271 295.561 419.039 296.719Q418.807 297.878 418.603 299.042Q418.4 300.206 418.226 301.375Q418.051 302.543 417.906 303.716C414.932 328.8 421.572 353.93 437.378 373.745Q438.102 374.652 438.848 375.542Q439.593 376.431 440.361 377.301Q441.128 378.172 441.917 379.023Q442.706 379.875 443.516 380.706Q444.325 381.538 445.155 382.349Q445.985 383.161 446.834 383.952Q447.684 384.742 448.553 385.512Q449.422 386.281 450.309 387.029Q451.197 387.777 452.102 388.503Q453.008 389.229 453.931 389.932Q454.855 390.635 455.795 391.315Q456.735 391.995 457.692 392.652Q458.649 393.309 459.622 393.942Q460.595 394.575 461.583 395.184Q462.571 395.793 463.574 396.377Q464.576 396.961 465.593 397.521Q466.61 398.08 467.641 398.614Q468.671 399.148 469.714 399.657Q470.758 400.165 471.813 400.648Q472.869 401.131 473.936 401.587Q475.003 402.044 476.081 402.474Q477.159 402.904 478.247 403.307Q479.335 403.71 480.433 404.087Q481.531 404.463 482.638 404.812Q483.745 405.161 484.86 405.483Q485.975 405.805 487.098 406.099Q488.22 406.393 489.35 406.66Q490.48 406.926 491.615 407.164Q492.751 407.403 493.893 407.613Q495.034 407.824 496.18 408.006Q497.326 408.188 498.477 408.342Q499.627 408.496 500.781 408.621Q501.916 408.749 503.053 408.849Q504.19 408.95 505.33 409.022Q506.469 409.094 507.61 409.138Q508.751 409.182 509.892 409.198Q511.034 409.215 512.176 409.202Q513.317 409.19 514.458 409.15Q515.599 409.11 516.739 409.042Q517.879 408.974 519.016 408.877Q520.154 408.781 521.289 408.657Q522.424 408.532 523.555 408.38Q524.687 408.228 525.815 408.048Q526.942 407.868 528.065 407.66Q529.187 407.453 530.305 407.218Q531.422 406.982 532.533 406.72Q533.644 406.457 534.748 406.167Q535.853 405.877 536.949 405.56Q538.046 405.243 539.135 404.899Q540.224 404.555 541.303 404.184Q542.383 403.813 543.454 403.416Q544.524 403.019 545.584 402.596Q546.645 402.172 547.694 401.723Q548.744 401.274 549.782 400.798Q550.82 400.323 551.847 399.823Q552.873 399.322 553.886 398.797Q554.9 398.271 555.9 397.721Q556.9 397.171 557.887 396.596Q558.873 396.021 559.845 395.422Q560.817 394.823 561.774 394.2Q562.731 393.577 563.673 392.931Q564.614 392.285 565.539 391.616Q566.464 390.947 567.373 390.255Q568.281 389.564 569.172 388.85C589.201 372.555 600.82 351.349 603.382 325.622C603.976 317.918 603.375 310.113 603.039 302.404C609.362 294.61 616.303 286.94 623.8 280.258C626.127 289.33 628.062 298.155 628.89 307.503Q629.013 308.931 629.1 310.362Q629.188 311.793 629.241 313.226Q629.293 314.658 629.31 316.092Q629.328 317.525 629.31 318.959Q629.292 320.392 629.238 321.825Q629.185 323.257 629.097 324.688Q629.008 326.119 628.885 327.547Q628.761 328.975 628.603 330.4Q628.444 331.825 628.25 333.245Q628.057 334.666 627.828 336.081Q627.6 337.496 627.337 338.905Q627.074 340.315 626.776 341.717Q626.479 343.119 626.146 344.514Q625.814 345.908 625.448 347.294Q625.082 348.68 624.682 350.057Q624.282 351.434 623.848 352.8Q623.414 354.166 622.946 355.521Q622.479 356.877 621.979 358.22Q621.478 359.563 620.945 360.894Q620.411 362.225 619.846 363.542Q619.28 364.859 618.682 366.162Q618.083 367.465 617.454 368.752Q616.824 370.04 616.162 371.312Q615.501 372.584 614.808 373.839Q614.116 375.094 613.393 376.332Q612.67 377.57 611.916 378.79Q611.163 380.009 610.38 381.21Q609.597 382.411 608.785 383.592Q607.973 384.773 607.131 385.934Q606.29 387.095 605.421 388.235Q604.552 389.375 603.654 390.493Q602.757 391.611 601.833 392.707Q600.905 393.819 599.95 394.907Q598.995 395.995 598.014 397.06Q597.032 398.124 596.024 399.163Q595.017 400.203 593.984 401.217Q592.95 402.232 591.892 403.22Q590.834 404.208 589.752 405.17Q588.67 406.132 587.564 407.067Q586.458 408.001 585.33 408.908Q584.201 409.815 583.051 410.694Q581.9 411.573 580.728 412.423Q579.556 413.273 578.363 414.093Q577.17 414.914 575.957 415.705Q574.744 416.495 573.512 417.256Q572.28 418.016 571.03 418.746Q569.779 419.476 568.511 420.174Q567.243 420.873 565.957 421.539Q564.672 422.206 563.371 422.841Q562.07 423.476 560.753 424.078Q559.436 424.68 558.105 425.249Q556.774 425.819 555.429 426.355Q554.084 426.891 552.726 427.394Q551.369 427.897 549.999 428.366Q548.629 428.835 547.248 429.269Q545.867 429.704 544.476 430.105Q543.084 430.505 541.683 430.871Q540.282 431.237 538.873 431.568Q537.463 431.898 536.046 432.194Q534.629 432.49 533.205 432.751Q531.78 433.012 530.35 433.237Q528.92 433.462 527.485 433.652Q526.049 433.842 524.61 433.996Q523.17 434.15 521.727 434.268C490.025 436.736 457.484 426.902 433.288 406.138Q432.16 405.17 431.055 404.174Q429.951 403.178 428.872 402.155Q427.793 401.131 426.74 400.082Q425.686 399.033 424.659 397.957Q423.632 396.882 422.632 395.782Q421.632 394.682 420.659 393.557Q419.686 392.432 418.742 391.284Q417.797 390.135 416.882 388.964Q415.966 387.793 415.079 386.599Q414.193 385.405 413.336 384.19Q412.479 382.974 411.653 381.738Q410.826 380.502 410.031 379.246Q409.235 377.989 408.471 376.714Q407.707 375.438 406.975 374.144Q406.242 372.85 405.542 371.538Q404.842 370.227 404.175 368.898Q403.507 367.569 402.873 366.224Q402.238 364.879 401.638 363.519Q401.037 362.159 400.47 360.784Q399.903 359.41 399.37 358.022Q398.837 356.633 398.339 355.232Q397.84 353.831 397.377 352.419Q396.913 351.006 396.485 349.582Q396.057 348.158 395.664 346.724Q395.271 345.29 394.913 343.846Q394.556 342.403 394.235 340.951Q393.913 339.5 393.628 338.04Q393.342 336.581 393.093 335.115Q392.843 333.649 392.631 332.178Q392.418 330.706 392.241 329.229Q392.065 327.753 391.925 326.273Q391.785 324.792 391.682 323.309Q391.581 321.818 391.516 320.326Q391.451 318.833 391.423 317.34Q391.394 315.846 391.402 314.352Q391.41 312.858 391.455 311.365Q391.499 309.871 391.58 308.379Q391.661 306.888 391.778 305.398Q391.895 303.909 392.048 302.423Q392.202 300.937 392.391 299.455Q392.581 297.973 392.806 296.496Q393.032 295.019 393.293 293.548Q393.555 292.077 393.852 290.613Q394.149 289.149 394.482 287.693Q394.815 286.236 395.183 284.788Q395.552 283.34 395.955 281.902Q396.358 280.464 396.797 279.035Q397.235 277.607 397.708 276.19Q398.181 274.773 398.689 273.368Q399.196 271.962 399.738 270.57Q400.279 269.178 400.855 267.799Q401.43 266.42 402.039 265.056Q402.647 263.691 403.289 262.342Q403.931 260.993 404.605 259.66Q405.28 258.327 405.987 257.011Q406.693 255.695 407.432 254.396Q408.171 253.097 408.941 251.817Q409.711 250.537 410.512 249.276Q411.313 248.015 412.144 246.774Q412.976 245.532 413.837 244.312Q414.699 243.091 415.59 241.892Q416.481 240.693 417.401 239.516Q418.321 238.339 419.269 237.184Q420.218 236.03 421.194 234.899C442.56 210.11 472.22 197.169 504.481 194.734Z"/>
	<path fill="#20232D" d="M490.481 85.2717C496.133 85.0376 501.732 84.8497 507.392 84.8666C573.642 85.0643 630.019 97.1895 689.794 125.799Q697.659 129.495 705.353 133.536Q713.047 137.577 720.554 141.956Q728.061 146.334 735.367 151.041Q742.672 155.747 749.762 160.773Q756.852 165.799 763.712 171.135Q770.572 176.47 777.188 182.104Q783.805 187.739 790.165 193.661Q796.525 199.583 802.617 205.781Q806.074 209.224 809.455 212.742Q812.836 216.26 816.138 219.852Q819.44 223.444 822.662 227.108Q825.884 230.772 829.025 234.506Q832.165 238.24 835.223 242.042Q838.28 245.845 841.253 249.714Q844.226 253.583 847.112 257.516Q849.999 261.45 852.798 265.446Q855.598 269.443 858.308 273.5Q861.018 277.557 863.639 281.673Q866.259 285.789 868.788 289.961Q871.316 294.134 873.752 298.362Q876.189 302.589 878.531 306.869Q880.873 311.149 883.12 315.48Q885.368 319.811 887.519 324.191Q889.67 328.57 891.724 332.996Q893.778 337.421 895.734 341.891Q897.69 346.361 899.546 350.873Q901.403 355.385 903.16 359.937Q904.917 364.489 906.573 369.079Q908.229 373.668 909.783 378.293Q911.337 382.918 912.789 387.577Q914.241 392.235 915.59 396.924Q916.939 401.613 918.184 406.331Q919.429 411.048 920.569 415.792Q921.71 420.536 922.746 425.304Q923.781 430.072 924.712 434.862Q925.642 439.651 926.466 444.46Q927.291 449.269 928.009 454.096Q928.727 458.922 929.338 463.762Q929.95 468.603 930.454 473.456Q930.959 478.309 931.356 483.172C933.059 502.154 933.052 521.117 932.992 540.151C950.083 538.863 966.946 536.102 983.968 534.4Q985.488 543.342 987.272 552.235C955.255 559.014 811.516 568.794 786.833 558.966Q783.145 557.456 779.716 555.423Q776.288 553.389 773.194 550.877C765.557 544.799 758.863 537.496 752.095 530.491C742.427 520.485 732.857 510.477 722.615 501.047C718.108 496.898 713.451 492.189 708.232 488.954C705.89 487.503 703.593 486.617 700.84 486.411C692.657 485.799 683.329 487.552 675.084 488.263C662.828 489.321 645.392 489.654 633.924 492.496C629.574 493.574 625.507 495.511 622.164 498.538C609.752 509.771 610.719 532.589 609.992 547.969C614.308 548.479 618.813 548.596 622.983 549.882C627.086 551.148 630.119 553.395 632.08 557.267C636.184 565.368 634.222 576.97 631.609 585.238C632.869 584.769 634.063 584.246 635.258 583.625C648.657 576.67 654.534 562.772 658.797 549.004C663.737 533.05 659.129 526.546 651.925 512.773C665.914 516.194 669.63 529.026 678.41 530.132C687.911 531.329 703.38 521.665 710.661 515.874C709.316 521.487 706.83 526.942 703.165 531.427C696.41 539.696 685.442 545.263 674.877 546.264C673.691 551.55 672.124 556.622 670.409 561.751C673.373 564.132 675.949 566.868 677.987 570.088C684.241 579.971 685.173 592.464 682.682 603.658C690.063 614.251 698.264 624.253 705.629 634.901C695.386 630.33 685.16 625.237 675.559 619.44C677.922 624.019 680.499 628.59 682.062 633.518C685.727 645.075 681.972 656.492 676.586 666.806C680.876 673.988 683.772 682.024 682.503 690.508C680.656 702.853 672.261 711.487 662.577 718.501C685.588 721.779 727.831 708.115 749.852 698.939C764.216 692.955 777.951 685.756 793 681.556C792.838 657.883 793.062 634.388 794.45 610.748C795.186 598.213 797.9 581.367 797.341 569.397C800.409 583.03 803.969 595.993 804.658 610.069C817.814 609.469 920.749 614.53 927.063 618.145C886.888 622.269 846.646 624.242 806.44 627.788C806.605 645.029 808.77 662.338 809.014 679.623C816.16 679.795 823.308 679.43 830.459 679.693Q877.474 681.705 924.176 687.482C945.383 689.972 966.878 692.549 987.812 696.816C986.937 702.637 985.781 708.414 984.686 714.197C935.101 707.145 885.465 699.777 835.343 697.747C824.406 697.304 811.999 696.126 801.234 698.221C784.602 701.457 768.008 711.3 752.324 717.703C730.491 726.617 697.239 736.871 673.593 736.938C664.801 736.963 656.078 735.449 647.554 733.399C643.315 732.379 638.881 731.469 634.86 729.763C633.05 728.994 630.989 727.986 629.055 727.685C625.649 727.156 621.03 728.085 617.539 728.29C608.33 728.832 597.813 729.487 588.69 727.859C577.928 725.939 568.972 719.725 562.802 710.784C555.408 700.067 554.578 689.517 556.815 676.965C551.708 672.067 547.235 667.037 544.606 660.369C540.589 650.182 542.062 639.103 546.256 629.251Q545.658 628.66 545.088 628.044Q544.517 627.427 543.973 626.786Q543.43 626.145 542.916 625.481Q542.401 624.816 541.916 624.13Q541.431 623.444 540.977 622.737Q540.523 622.03 540.1 621.303Q539.678 620.577 539.288 619.833Q538.897 619.089 538.54 618.328Q538.183 617.567 537.86 616.792Q537.536 616.016 537.247 615.227Q536.958 614.438 536.705 613.637Q536.451 612.836 536.232 612.024Q536.014 611.213 535.831 610.393Q535.649 609.572 535.503 608.745Q535.356 607.917 535.247 607.084Q535.137 606.251 535.064 605.414C534.056 593.223 538.017 584.701 545.727 575.561C542.764 572.59 540.099 569.417 538.067 565.732C532.166 555.029 532.549 539.703 535.994 528.287C539.388 517.045 546.768 507.507 557.152 501.942C571.006 494.516 586.569 495.758 601.151 500.11C603.078 495.946 605.432 492.249 608.556 488.871C613.549 483.472 619.863 479.127 626.851 476.773C638.465 472.862 652.595 473.264 664.804 472.138C675.763 471.127 686.955 469.577 697.943 469.239C703.408 469.071 708.468 469.794 713.424 472.25C732.056 481.482 763.275 518.407 780.041 534.078C784.998 538.711 790.402 541.794 796.99 543.453C807.634 546.133 819.863 545.564 830.776 545.482C842.397 545.395 854.099 545.276 865.704 544.655C881.744 543.797 897.778 542.397 913.834 541.888C913.305 534.295 914.073 526.41 914.047 518.77Q914.032 513.625 913.892 508.483Q913.752 503.34 913.487 498.203Q913.222 493.065 912.833 487.935Q912.443 482.805 911.93 477.686Q911.416 472.568 910.778 467.463Q910.14 462.358 909.378 457.27Q908.617 452.182 907.732 447.114Q906.847 442.047 905.84 437.002Q904.832 431.957 903.702 426.938Q902.573 421.919 901.321 416.929Q900.07 411.939 898.698 406.981Q897.326 402.022 895.835 397.099Q894.343 392.175 892.732 387.29Q891.121 382.404 889.392 377.559Q887.663 372.713 885.817 367.911Q883.97 363.109 882.008 358.354Q880.046 353.598 877.969 348.892Q875.892 344.185 873.702 339.53Q871.511 334.875 869.208 330.275Q866.905 325.675 864.491 321.132Q862.077 316.589 859.554 312.105Q857.031 307.622 854.399 303.202Q851.768 298.781 849.029 294.426Q846.292 290.07 843.449 285.783Q840.606 281.495 837.66 277.278Q834.713 273.06 831.666 268.915Q828.618 264.771 825.471 260.701Q822.323 256.632 819.078 252.64Q815.833 248.648 812.492 244.736Q809.151 240.824 805.716 236.995Q802.281 233.165 798.754 229.42Q795.227 225.674 791.61 222.016Q788.125 218.491 784.553 215.054Q780.98 211.617 777.323 208.27Q773.666 204.923 769.927 201.669Q766.188 198.415 762.368 195.255Q758.548 192.095 754.651 189.032Q750.754 185.968 746.781 183.003Q742.809 180.038 738.763 177.173Q734.718 174.308 730.602 171.545Q726.486 168.782 722.303 166.123Q718.119 163.463 713.871 160.909Q709.622 158.355 705.311 155.908Q701 153.461 696.629 151.122Q692.258 148.784 687.83 146.555Q683.402 144.326 678.92 142.209Q674.438 140.091 669.904 138.086Q665.371 136.082 660.788 134.191Q656.206 132.3 651.578 130.524Q646.95 128.748 642.278 127.088Q637.607 125.429 632.896 123.886Q628.185 122.344 623.437 120.919Q618.689 119.495 613.907 118.19Q609.124 116.884 604.311 115.699Q599.498 114.514 594.656 113.449Q589.815 112.384 584.948 111.441Q580.082 110.497 575.193 109.675Q570.304 108.854 565.397 108.154Q560.489 107.455 555.566 106.879Q550.642 106.302 545.706 105.849Q540.769 105.395 535.823 105.066Q530.877 104.736 525.924 104.53Q520.971 104.323 516.015 104.241Q511.058 104.159 506.101 104.2C403.138 104.94 302.859 150.351 230.971 223.24C159.56 295.645 119.133 390.192 110.52 491.097C109.058 508.225 108.911 525.272 109.031 542.442C112.943 542.607 116.852 542.992 120.763 543.219Q151.88 545.103 183.05 545.568C197.231 545.826 213.671 546.951 227.518 543.818C232.132 542.773 236.079 540.569 239.74 537.631C245.22 533.234 250.088 527.869 255.031 522.885C268.593 509.209 281.541 494.379 295.982 481.655C306.772 472.149 317.638 469.08 331.875 470.001C342.08 470.306 352.345 471.369 362.533 472.08C372.684 472.789 384.278 472.529 394.047 475.483C406.841 479.351 415.951 488.196 422.131 499.817C430.334 497.798 439.199 496.129 447.68 496.613C459.323 497.277 471.887 502.879 479.641 511.672C488.233 521.415 491.454 535.306 490.583 548.048C489.806 559.4 486.782 567.792 478.113 575.402C484.123 582.864 488.679 589.757 489.236 599.606C489.874 610.89 485.457 620.051 478.065 628.272C480.511 635.322 482.156 642.451 481.824 649.965C481.328 661.167 476.386 668.85 468.285 676.223C469.553 690.049 468.996 702.235 459.682 713.383C443.563 732.676 417.405 727.65 395.36 727.515C389.589 727.479 383.99 730.405 378.521 732.019Q376.006 732.787 373.455 733.425Q370.903 734.062 368.322 734.568Q365.742 735.073 363.138 735.445Q360.535 735.817 357.916 736.054Q355.297 736.291 352.669 736.393Q350.041 736.495 347.411 736.461Q344.782 736.427 342.157 736.258Q339.533 736.089 336.921 735.785C312.383 732.903 288.195 723.981 265.624 714.294C251.014 708.024 235.68 699.85 219.793 697.547C214.067 696.717 208.27 697.176 202.511 697.333C188.067 697.726 173.79 698.844 159.412 700.187C166.322 711.502 172.13 723.44 179.247 734.669Q183.762 741.755 188.568 748.646Q193.374 755.537 198.463 762.222Q203.552 768.908 208.915 775.375Q214.278 781.842 219.906 788.08Q225.534 794.318 231.417 800.317Q237.3 806.315 243.428 812.063Q249.556 817.811 255.918 823.299Q262.28 828.786 268.865 834.004Q272.533 836.957 276.273 839.821Q280.012 842.684 283.82 845.456Q287.627 848.227 291.501 850.905Q295.375 853.583 299.313 856.167Q303.251 858.75 307.251 861.236Q311.25 863.723 315.309 866.112Q319.368 868.5 323.484 870.789Q327.6 873.078 331.77 875.267Q335.94 877.455 340.162 879.542Q344.385 881.628 348.656 883.612Q352.928 885.595 357.247 887.473Q361.565 889.352 365.928 891.125Q370.291 892.898 374.696 894.565Q379.101 896.231 383.545 897.79Q387.989 899.349 392.47 900.799Q396.951 902.25 401.465 903.591Q405.98 904.932 410.526 906.162Q415.072 907.393 419.646 908.513Q424.221 909.633 428.821 910.641Q433.422 911.65 438.045 912.546Q442.669 913.442 447.312 914.226Q451.956 915.009 456.618 915.68Q461.28 916.35 465.956 916.907Q470.633 917.463 475.322 917.906Q480.01 918.349 484.708 918.678Q489.406 919.007 494.111 919.221Q498.816 919.436 503.524 919.536Q508.233 919.636 512.942 919.621Q517.652 919.606 522.36 919.477Q527.068 919.348 531.771 919.105Q536.474 918.861 541.17 918.504Q545.866 918.146 550.552 917.674C634.487 908.416 712.877 874.109 774.706 816.254C785.02 806.603 795.969 796.371 804.824 785.331C794.343 784.623 756.731 786.994 750.357 783.677C748.299 782.606 746.734 780.952 746.07 778.701C745.377 776.355 745.601 772.956 746.8 770.806C748.139 768.407 750.807 767.189 753.389 766.639C758.585 765.534 764.461 766.118 769.76 766.118L793.783 766.05C802.699 766.025 812.389 765.221 821.21 766.041C823.289 766.234 825.515 766.702 827.239 767.951C829.436 769.544 830.344 772.144 830.715 774.733C831.829 782.499 831.033 796.16 831.067 804.375L831.081 831.555C831.07 836.716 831.347 842.08 830.839 847.209C830.624 849.375 830.194 852.148 828.744 853.869C827.279 855.61 825.067 856.309 822.852 856.369C818.891 856.476 816.315 855.326 813.442 852.709C810.609 845.152 812.005 816.783 812.046 807.143C774.78 846.314 732.018 878.786 682.885 901.615Q678.366 903.712 673.797 905.697Q669.227 907.683 664.611 909.556Q659.995 911.429 655.333 913.188Q650.672 914.947 645.97 916.591Q641.267 918.236 636.525 919.764Q631.784 921.293 627.006 922.704Q622.228 924.116 617.417 925.41Q612.606 926.705 607.765 927.881Q602.924 929.057 598.055 930.113Q593.187 931.17 588.294 932.107Q583.401 933.045 578.486 933.862Q573.572 934.678 568.639 935.375Q563.706 936.071 558.757 936.646Q553.808 937.221 548.847 937.674Q543.886 938.128 538.915 938.46Q533.944 938.792 528.967 939.001Q523.989 939.211 519.008 939.299Q514.027 939.387 509.045 939.352Q504.063 939.318 499.084 939.161Q494.104 939.005 489.13 938.726Q484.156 938.447 479.19 938.047Q474.224 937.646 469.27 937.124Q464.315 936.602 459.375 935.959Q454.435 935.315 449.512 934.551Q444.589 933.787 439.686 932.902Q434.783 932.017 429.904 931.012Q425.024 930.008 420.171 928.883Q415.317 927.759 410.493 926.517Q405.668 925.274 400.876 923.913Q396.083 922.553 391.325 921.075Q386.568 919.597 381.848 918.003Q377.128 916.409 372.448 914.7Q368.937 913.406 365.449 912.048Q361.961 910.69 358.499 909.27Q355.036 907.85 351.6 906.367Q348.163 904.885 344.754 903.341Q341.345 901.797 337.964 900.192Q334.583 898.587 331.232 896.921Q327.881 895.255 324.56 893.529Q321.239 891.803 317.95 890.018Q314.661 888.232 311.405 886.388Q308.148 884.543 304.925 882.641Q301.703 880.738 298.515 878.777Q295.327 876.817 292.175 874.799Q289.023 872.782 285.908 870.707Q282.792 868.633 279.715 866.503Q276.638 864.374 273.599 862.189Q270.561 860.004 267.562 857.764Q264.563 855.525 261.606 853.232Q258.648 850.939 255.732 848.593Q252.816 846.247 249.942 843.849Q247.069 841.451 244.24 839.002Q241.41 836.552 238.625 834.052Q235.84 831.552 233.1 829.003Q230.361 826.453 227.668 823.854Q224.974 821.256 222.328 818.609Q219.682 815.962 217.085 813.268Q214.487 810.574 211.938 807.834Q209.389 805.093 206.89 802.307Q204.391 799.522 201.942 796.691Q199.494 793.861 197.097 790.987Q194.699 788.113 192.354 785.196Q190.01 782.279 187.717 779.321Q185.425 776.362 183.187 773.363C166.374 751.219 151.204 727.223 139.487 701.966C124.748 703.84 109.959 705.198 95.2366 707.238C76.289 709.865 57.4394 713.229 38.5088 715.998Q36.5822 706.722 35.0341 697.376C50.9566 695.505 66.8141 692.35 82.7144 690.16C126.437 684.139 170.969 679.172 215.136 678.482C215.403 661.671 216.889 644.821 217.587 628.016L96.2354 617.671C136.658 612.212 178.152 612.148 218.856 610.036C219.907 599.607 221.64 586.458 225.795 576.824C225.621 585.918 226.915 595.278 227.536 604.355L231.054 657.322C231.448 663.105 233.783 675.503 232.063 680.484C232.003 680.658 231.929 680.826 231.862 680.997C235.773 683.717 243.221 684.884 247.905 687.051C280.362 702.07 324.111 722.604 360.445 718.303C351.426 712.742 344.268 706.102 341.819 695.416C339.445 685.052 342.032 675.666 347.552 666.842C346.136 664.408 344.668 661.963 343.407 659.445C338.54 649.734 338.253 639.716 342.206 629.626C343.446 626.461 345.312 623.638 346.393 620.395L346.059 619.896C342.723 619.881 338.589 625.796 335.274 627.463C328.803 630.715 321.982 632.076 314.965 633.601C325.333 625.784 333.789 616.12 339.503 604.398Q338.685 598.707 338.861 592.96C339.155 580.638 343.843 572.035 352.63 563.664C350.012 557.79 348.402 551.626 347.285 545.31C344.258 544.232 341.217 543.1 338.27 541.819C326.812 536.838 319.619 529.312 314.999 517.773C326.194 525.559 337.704 529.745 351.377 530.109C356.431 520.595 362.32 513.982 372.62 509.993C369.252 520.089 361.42 531.779 362.868 542.596C365.249 560.379 375.845 572.474 389.407 582.989C388.631 574.524 388.026 565.353 392.897 557.884C397.933 550.163 405.818 548.804 414.102 547.035C413.233 533.403 413.951 514.96 405.476 503.502C399.996 496.092 391.967 492.125 382.986 490.813C374.358 489.553 326.819 485.893 320.386 487.491C315.912 488.601 311.712 491.008 308.1 493.824C302.139 498.473 297.055 504.363 291.822 509.803C278.852 523.285 261.236 543.122 246.406 554.032C241.255 557.821 235.681 560.425 229.372 561.574C217.621 563.713 204.372 562.727 192.414 562.784Q172.833 562.957 153.26 562.386Q133.687 561.815 114.15 560.5Q94.6125 559.186 75.1393 557.129Q55.6661 555.073 36.2852 552.278C37.8084 546.355 38.8307 540.277 39.9684 534.271C46.8754 536.069 54.3957 536.702 61.4811 537.562Q75.8511 539.392 90.272 540.763C88.7696 442.428 113.179 348.49 169.536 267.125C180.364 251.492 191.658 236.644 204.567 222.638C255.868 166.977 317.89 126.002 390.236 103.229Q402.416 99.3955 414.816 96.3467Q427.216 93.298 439.785 91.0464Q452.354 88.7949 465.041 87.3497Q477.728 85.9046 490.481 85.2717ZM428.105 581.417C427.448 585.082 426.682 588.068 424.749 591.314C415.558 596.619 404.426 597.548 394.193 594.737C388.959 593.299 384.038 590.803 379.039 588.725C376.313 598.333 376.847 606.881 377.684 616.738C380.889 617.14 384.065 617.554 387.234 618.184C388.07 613.215 389.699 602.28 393.315 598.793C393.741 598.382 394.072 598.268 394.571 598.037L395.052 598.323C394.2 602.338 391.996 614.942 393.855 618.417C393.926 618.55 394.03 618.662 394.117 618.784L395.375 618.982C409.979 619.066 424.658 620.576 439.244 621.305C445.069 621.596 451.764 622.552 457.465 621.427C460.663 620.795 463.644 619.091 465.939 616.795C469.911 612.822 472.243 607.008 472.002 601.387Q471.981 600.895 471.935 600.404Q471.889 599.914 471.819 599.426Q471.749 598.939 471.655 598.455Q471.56 597.971 471.442 597.493Q471.324 597.015 471.182 596.543Q471.04 596.071 470.875 595.607Q470.71 595.143 470.522 594.688Q470.334 594.232 470.123 593.787Q469.913 593.341 469.68 592.907Q469.448 592.473 469.194 592.05Q468.94 591.628 468.666 591.219Q468.392 590.81 468.097 590.415Q467.803 590.02 467.489 589.64Q467.175 589.26 466.843 588.896Q466.511 588.533 466.161 588.186Q465.811 587.839 465.444 587.51C456.836 579.931 439.108 581.472 428.105 581.417ZM376.801 663.716L386.93 666.205C386.682 664.303 386.408 662.406 386.302 660.489C386.372 660.442 386.446 660.4 386.511 660.347C387.477 659.572 388.207 658.908 389.341 658.374L389.692 659.152L390.583 658.668C390.829 661.384 391.011 664.031 390.986 666.762C404.341 667.958 433.858 671.388 445.833 669.187Q446.67 669.036 447.495 668.828Q448.32 668.621 449.129 668.359Q449.938 668.097 450.728 667.782Q451.518 667.466 452.285 667.099Q453.052 666.731 453.793 666.313Q454.533 665.895 455.244 665.428Q455.955 664.961 456.633 664.448Q457.312 663.935 457.954 663.377C462.047 659.824 464.768 655.085 464.966 649.6C465.126 645.183 463.778 640.74 462.334 636.612C436.052 638.575 404.848 633.953 378.025 632.973C375.737 643.614 374.645 652.895 376.801 663.716ZM561.707 637.473C559.39 643.345 558.075 648.782 560.597 654.91C563.146 661.107 568.454 665.954 574.692 668.295C577.537 669.363 580.489 669.815 583.512 669.91C592.919 670.208 602.725 668.838 612.127 668.092C619.08 667.54 626.201 667.422 633.096 666.448C633.145 664.509 632.899 661.996 633.407 660.152C634.08 659.586 634.415 659.231 634.914 658.543C634.411 657.243 634.274 656.472 634.375 655.08L635.339 654.337L636.691 657.233L637.209 656.67C637.91 659.621 637.567 662.987 637.565 666.018Q642.924 664.886 648.338 664.058C648.642 662.321 648.77 660.196 649.341 658.551C649.475 652.245 648.581 646.561 647.092 640.442L644.676 633.417Q617.382 635.272 590.065 636.725C580.958 637.213 570.77 638.58 561.707 637.473ZM590.666 581.774C579.194 582.041 565.294 579.99 556.717 589.178C553.044 593.113 550.794 598.405 551.113 603.831Q551.142 604.317 551.195 604.801Q551.249 605.285 551.327 605.765Q551.405 606.245 551.507 606.721Q551.61 607.197 551.736 607.667Q551.862 608.137 552.013 608.6Q552.163 609.063 552.336 609.518Q552.51 609.973 552.706 610.418Q552.903 610.864 553.122 611.298Q553.34 611.733 553.581 612.156Q553.822 612.579 554.084 612.99Q554.346 613.4 554.628 613.796Q554.911 614.193 555.213 614.574Q555.515 614.956 555.836 615.322Q556.158 615.687 556.497 616.036Q556.836 616.385 557.193 616.716Q557.55 617.047 557.923 617.36C566.647 624.657 581.159 621.67 591.673 620.998C605.148 620.587 619.264 618.593 632.606 618.764C631.518 610.543 630.207 602.747 627.554 594.85C620.214 596.043 607.197 596.888 600.8 592.302C596.618 589.303 597.003 582.47 596.163 581.8C595.399 581.192 591.624 581.703 590.666 581.774ZM578.134 513.679C569.748 514.754 562.374 517.103 556.859 524.041C551.722 530.504 548.647 540.351 549.848 548.578C550.73 554.622 554.336 560.607 559.35 564.12C563.975 567.361 568.464 567.762 573.876 567.265C581.951 566.733 590.12 566.094 598.209 566.056C599.291 561.802 600.608 557.422 601.073 553.053C601.678 547.369 601.112 541.566 600.935 535.866Q600.713 527.231 601.204 518.607C593.564 516.139 586.23 513.916 578.134 513.679ZM441.282 513.64C435.184 514.535 429.989 515.982 424.427 518.674C424.767 524.597 424.976 530.396 424.594 536.33C424.253 541.626 423.314 547.186 423.594 552.465C423.844 557.178 425.027 561.863 426.013 566.467L455.617 566.956C461.315 566.267 465.98 563.518 469.578 559.013C473.713 553.836 474.926 547.671 474.109 541.205C473.097 533.196 469.335 524.656 462.911 519.571C456.47 514.472 449.253 513.144 441.282 513.64ZM573.578 685.035C572.84 691.843 573.523 697.753 577.95 703.321C582.414 708.936 589.026 712.115 596.097 712.741C608.297 713.82 622.717 711.968 634.797 709.909C635.49 706.422 635.915 702.955 636.287 699.42C636.69 700.705 636.448 700.92 637.683 701.606C637.806 701.495 637.936 701.391 638.053 701.273C639.598 699.703 639.471 698.03 639.56 695.969C640.255 700.389 640.251 705.174 639.346 709.562C642.189 708.156 644.981 706.805 647.586 704.981C651.226 696.432 650.166 688.931 648.75 680.021C637.587 681.556 626.158 682.02 614.919 682.836C601.195 683.832 587.346 685.118 573.578 685.035ZM377.284 681.469C374.682 690.539 374.507 698.898 375.694 708.229C378.437 708.973 381.084 709.56 383.901 709.953C384.276 702.175 385.804 695.864 389.613 689.01C388.548 696.355 388.352 703.384 388.537 710.785C401.976 711.955 417.221 713.397 430.6 711.4C436.915 710.46 442.778 707.588 446.741 702.443C450.807 697.165 451.703 691.389 451.382 684.939C434.757 686.797 393.666 684.618 377.284 681.469ZM413.641 552.764C407.662 553.172 402.537 554.35 397.92 558.457C395.112 564.815 394.19 573.84 396.772 580.405C397.648 582.633 399.029 584.89 401.317 585.849C401.842 586.069 402.38 586.247 402.921 586.422C407.105 586.574 414.551 587.609 417.816 584.311C419.429 582.682 419.786 580.568 419.639 578.356C419.428 575.165 415.642 554.977 414.492 552.997L413.641 552.764ZM609.387 552.395C608.204 558.446 602.412 579.939 604.376 584.346C607.696 586.578 616.523 586.487 620.424 585.715Q621.484 585.496 622.508 585.148C626.176 579.894 629.824 570.04 628.707 563.549C628.186 560.521 626.616 558.033 624.063 556.304C619.855 553.454 614.296 553.015 609.387 552.395ZM363.406 578.225C358.525 583.713 355.544 590.453 356.08 597.945C356.467 603.358 358.708 608.054 362.961 611.472C365.024 613.13 367.904 613.927 370.374 614.81L372.173 615.397C372.601 613.532 372.028 611.124 371.828 609.203C370.972 600.987 371.491 594.794 374.625 587.073C371.403 584.456 367.11 579.878 363.406 578.225ZM648.384 633.178L649.918 636.335L649.706 638.325C649.504 638.467 649.3 638.607 649.1 638.752C648.378 639.278 647.745 639.836 647.092 640.442C648.581 646.561 649.475 652.245 649.341 658.551C651.509 658.895 650.982 657.197 653.269 659.143C653.093 660.261 653.055 661.176 653.159 662.304C654.193 662.556 654.928 662.525 655.903 662.09C659.712 660.391 662.832 655.194 664.265 651.431C666.93 644.435 665.226 638.618 662.384 632.12C657.748 632.614 653.038 632.764 648.384 633.178ZM645.939 588.458C640.657 591.14 635.682 592.982 629.942 594.426C634.709 601.454 636.296 608.14 636.792 616.533L636.969 617.619C639.155 618.778 646.418 617.005 648.993 616.614C650.08 609.997 651.111 594.424 646.478 588.941C646.323 588.757 646.119 588.619 645.939 588.458ZM659.452 577.326C656.221 580.473 653.032 583.662 649.555 586.54C653.14 593.305 655.065 600.554 654.421 608.262C654.256 610.244 653.596 612.563 654.158 614.48C655.043 614.54 654.65 614.611 655.351 614.354C661.734 608.272 666.058 601.044 666.308 591.995C666.427 587.728 665.264 583.134 662.282 579.95C661.414 579.023 660.431 578.136 659.452 577.326ZM361.248 630.46C358.263 636.486 355.676 642.862 358.12 649.602C360.338 655.718 365.476 659.033 370.839 662.116C369.37 651.649 369.872 642.189 373.617 632.206Q367.439 631.284 361.248 630.46ZM361.787 678.244C359.392 683.335 357.741 687.64 359.723 693.284C361.37 697.973 364.875 701.61 368.956 704.297C369.069 696.405 368.933 688.331 371.381 680.736C368.232 679.886 364.993 678.803 361.787 678.244ZM661.603 678.719C658.731 679.238 655.962 679.577 653.046 679.726C654.365 687.778 654.891 692.777 654.128 701.023L654.653 701.392L655.099 701.117C659.646 697.718 664.093 692.847 664.824 686.964C665.14 684.424 664.279 680.943 662.322 679.169C662.112 678.979 661.843 678.869 661.603 678.719Z"/>
	<path d="M649.918 636.335C653.606 643.774 653.878 650.98 653.269 659.143C650.982 657.197 651.509 658.895 649.341 658.551C649.475 652.245 648.581 646.561 647.092 640.442C647.745 639.836 648.378 639.278 649.1 638.752C649.3 638.607 649.504 638.467 649.706 638.325L649.918 636.335Z"/>
	<path d="M636.104 684.524C637.589 688.258 639.058 691.956 639.56 695.969C639.471 698.03 639.598 699.703 638.053 701.273C637.936 701.391 637.806 701.495 637.683 701.606C636.448 700.92 636.69 700.705 636.287 699.42C636.664 694.462 636.417 689.478 636.104 684.524Z"/>
	<path d="M631.868 643.313C634.552 647.819 636.373 651.442 637.209 656.67L636.691 657.233L635.339 654.337L634.375 655.08C634.274 656.472 634.411 657.243 634.914 658.543C634.415 659.231 634.08 659.586 633.407 660.152C633.366 654.429 632.854 648.953 631.868 643.313Z"/>
	<path d="M391.018 641.622C390.77 647.31 390.566 652.973 390.583 658.668L389.692 659.152L389.341 658.374C388.207 658.908 387.477 659.572 386.511 660.347C386.446 660.4 386.372 660.442 386.302 660.489C386.51 653.68 388.496 647.892 391.018 641.622Z"/>
</svg>
